<?xml version="1.0" standalone="no"?>
<!DOCTYPE svg PUBLIC "-//W3C//DTD SVG 20010904//EN"
 "http://www.w3.org/TR/2001/REC-SVG-20010904/DTD/svg10.dtd">
<svg version="1.0" xmlns="http://www.w3.org/2000/svg"
 width="512.000000pt" height="512.000000pt" viewBox="0 0 512.000000 512.000000"
 preserveAspectRatio="xMidYMid meet">
<g transform="translate(0.000000,512.000000) scale(0.100000,-0.100000)"
fill="#000000" stroke="none">
<path d="M3477 4968 c-54 -42 -45 -177 19 -269 32 -47 103 -96 162 -112 23 -6
42 -14 42 -17 0 -3 -104 -131 -231 -285 -127 -154 -241 -293 -254 -309 l-23
-29 -63 53 c-212 177 -525 327 -786 377 l-93 18 0 83 0 82 75 0 c71 0 75 -1
89 -27 52 -101 186 -143 285 -90 128 67 149 243 41 341 -66 60 -143 71 -226
32 -48 -22 -104 -79 -104 -104 0 -8 -26 -12 -80 -12 l-80 0 0 45 c0 51 -32 95
-70 95 -38 0 -70 -44 -70 -95 l0 -45 -140 0 -140 0 0 45 c0 35 -6 52 -25 70
-30 30 -54 31 -89 4 -22 -17 -26 -28 -26 -70 l0 -49 -68 0 c-64 0 -70 2 -80
25 -25 55 -114 54 -128 -1 -6 -23 -10 -24 -88 -24 -97 0 -126 -17 -126 -75 0
-50 27 -65 122 -65 74 0 79 -1 88 -24 21 -56 92 -61 125 -9 19 31 22 32 88 33
l68 0 -3 -81 -3 -82 -105 -23 c-907 -202 -1523 -1049 -1429 -1964 56 -554 355
-1046 819 -1350 611 -400 1403 -397 2010 8 471 315 761 812 811 1391 27 305
-43 656 -186 940 -47 94 -138 240 -194 312 l-20 25 287 235 c157 128 316 263
354 298 l68 63 0 -101 c0 -139 -20 -219 -90 -354 -82 -159 -103 -235 -98 -346
5 -115 36 -179 120 -255 61 -56 163 -107 240 -121 31 -6 41 -3 62 19 15 14 26
34 26 44 0 32 -36 68 -82 81 -149 45 -228 133 -228 253 0 76 13 117 86 263 82
166 105 254 105 405 0 68 -6 137 -15 170 -14 53 -14 55 11 85 85 100 82 227
-8 312 -66 63 -156 80 -234 44 -23 -10 -69 -44 -103 -76 l-62 -58 -52 7 c-73
10 -145 43 -171 80 -17 23 -22 47 -24 96 -1 53 -5 67 -23 82 -26 21 -59 23
-83 6z m654 -287 c29 -30 37 -64 20 -90 -8 -12 -16 -8 -46 18 -21 18 -48 37
-61 43 -28 13 -30 26 -6 44 28 22 61 16 93 -15z m-1487 -2 c17 -14 26 -30 26
-50 0 -65 -80 -93 -119 -43 -27 35 -26 59 4 89 30 30 54 31 89 4z m-534 -191
l0 -73 -140 0 -140 0 0 73 0 72 140 0 140 0 0 -72z m1879 34 c50 -37 50 -48
-2 -99 l-47 -48 -58 58 -57 58 37 34 c33 31 40 33 70 25 18 -6 44 -18 57 -28z
m-159 -245 c-378 -311 -523 -427 -526 -424 -5 4 80 109 334 416 l94 113 51
-50 c28 -28 49 -53 47 -55z m-1725 -7 c339 -32 622 -141 885 -341 118 -89 117
-86 69 -142 -22 -26 -45 -47 -51 -47 -5 0 -31 18 -56 41 -26 23 -83 65 -127
94 -546 362 -1257 343 -1781 -49 -601 -448 -792 -1263 -456 -1933 108 -214
319 -454 512 -582 359 -239 764 -320 1178 -236 564 115 1015 532 1177 1090 78
271 78 579 -2 855 -46 161 -141 355 -235 479 l-42 55 49 43 c27 24 52 43 56
43 22 0 161 -218 217 -340 255 -552 196 -1193 -156 -1690 -86 -122 -271 -307
-392 -392 -451 -319 -1018 -401 -1530 -223 -371 129 -679 377 -887 710 -230
370 -306 830 -209 1255 147 638 643 1133 1279 1275 185 41 330 51 502 35z
m205 -318 c183 -49 298 -101 446 -201 49 -34 107 -76 128 -95 l39 -34 -115
-139 c-64 -77 -121 -150 -128 -162 -25 -48 22 -110 74 -97 13 3 86 57 162 121
77 63 144 115 150 115 16 0 129 -177 173 -271 41 -87 79 -198 107 -309 21 -88
30 -382 15 -490 -83 -562 -502 -1026 -1053 -1165 -407 -102 -843 -13 -1184
241 -79 59 -215 194 -274 273 -162 215 -254 456 -282 734 -20 205 15 432 97
637 182 452 576 772 1065 865 53 10 131 13 270 11 181 -3 203 -5 310 -34z"/>
<path d="M2047 3366 c-20 -7 -47 -20 -59 -28 -21 -14 -27 -13 -63 6 -67 35
-139 29 -270 -23 -130 -52 -176 -91 -195 -169 -12 -46 -16 -49 -56 -60 -71
-19 -106 -59 -164 -188 -29 -63 -54 -132 -57 -152 -6 -45 11 -112 35 -142 18
-22 17 -24 -5 -68 -35 -69 -31 -122 22 -260 52 -135 92 -183 171 -204 25 -7
49 -20 51 -28 30 -97 58 -125 198 -191 132 -63 198 -71 276 -31 l45 24 42 -22
c34 -18 55 -21 100 -18 66 5 240 68 291 106 33 24 81 110 81 145 0 10 8 17 20
17 28 0 90 33 117 62 13 13 46 76 75 139 62 137 68 198 26 270 -25 42 -25 42
-6 75 34 58 34 118 -1 219 -51 147 -77 193 -129 226 -25 16 -60 31 -77 35 -27
5 -33 12 -43 50 -18 66 -70 111 -196 167 -121 54 -174 64 -229 43z m183 -178
c93 -43 110 -58 110 -101 0 -23 -21 -50 -113 -144 l-114 -114 -36 17 -37 18 0
159 c0 165 6 192 43 207 27 11 41 7 147 -42z m-355 17 c24 -24 25 -28 25 -183
l0 -159 -39 -15 -39 -16 -116 118 c-156 158 -155 181 9 244 110 41 129 43 160
11z m643 -252 c19 -17 92 -197 92 -229 0 -8 -11 -26 -25 -39 -24 -24 -28 -25
-183 -25 l-158 0 -18 36 -17 36 98 100 c136 138 169 157 211 121z m-909 -107
l113 -114 -13 -36 -13 -36 -163 0 c-161 0 -164 0 -188 25 -14 13 -25 31 -25
40 0 20 79 195 98 218 8 9 29 17 46 17 27 0 49 -17 145 -114z m436 -140 c84
-55 82 -176 -4 -233 -120 -80 -268 68 -188 188 44 66 130 86 192 45z m-335
-227 l14 -41 -116 -114 c-157 -154 -181 -153 -243 14 -42 111 -43 134 -9 161
24 19 40 21 184 21 l157 0 13 -41z m881 23 c34 -28 28 -65 -27 -177 -48 -99
-49 -100 -87 -103 -37 -3 -43 1 -152 108 l-113 112 16 39 15 39 162 0 c143 0
166 -2 186 -18z m-724 -174 l33 -12 0 -163 c0 -161 0 -164 -25 -188 -13 -14
-32 -25 -41 -25 -22 0 -194 77 -216 97 -11 10 -18 30 -18 51 0 30 12 47 108
143 59 60 111 109 116 109 5 0 25 -5 43 -12z m366 -106 c73 -74 117 -127 117
-139 0 -36 -33 -62 -127 -98 -106 -40 -135 -43 -163 -15 -18 18 -20 33 -20
183 l0 163 28 11 c15 6 32 11 38 12 5 1 63 -52 127 -117z"/>
</g>
</svg>
